<?xml version="1.0" standalone="no"?>
<!DOCTYPE svg PUBLIC "-//W3C//DTD SVG 20010904//EN"
 "http://www.w3.org/TR/2001/REC-SVG-20010904/DTD/svg10.dtd">
<svg version="1.0" xmlns="http://www.w3.org/2000/svg"
 width="500.000000pt" height="500.000000pt" viewBox="0 0 500.000000 500.000000"
 preserveAspectRatio="xMidYMid meet">
<metadata>
Created by potrace 1.16, written by Peter Selinger 2001-2019
</metadata>
<g transform="translate(0.000000,500.000000) scale(0.100000,-0.100000)"
fill="#000000" stroke="none">
<path d="M2245 4424 c-151 -27 -324 -108 -469 -219 -75 -57 -105 -74 -120 -69
-12 4 -59 21 -106 39 -174 66 -189 70 -305 70 -339 -1 -587 -188 -672 -505
-26 -98 -23 -338 5 -442 74 -273 276 -474 542 -539 47 -11 102 -25 124 -31
l39 -9 -7 -77 c-20 -219 -110 -573 -220 -870 -64 -171 -65 -167 40 -132 185
63 522 131 819 165 192 22 628 31 840 16 133 -9 546 -51 635 -64 11 -1 14 6
13 28 -2 17 -12 131 -23 255 -21 219 -28 565 -15 655 l7 40 176 0 c163 0 185
2 277 28 273 76 474 243 603 502 70 139 87 212 86 355 0 110 -4 133 -27 196
-43 113 -75 163 -161 250 -93 93 -183 149 -308 193 -124 43 -233 61 -367 61
-144 -1 -223 -15 -422 -74 l-157 -47 -102 67 c-124 81 -236 130 -355 155 -107
22 -255 24 -370 3z m308 -188 c97 -25 282 -111 282 -131 0 -6 -52 -36 -115
-67 -153 -76 -122 -75 186 1 340 85 459 105 629 105 113 0 156 -5 224 -23 225
-60 377 -200 421 -390 18 -77 16 -223 -5 -301 -57 -220 -239 -407 -461 -475
-227 -69 -557 -39 -776 71 -37 19 -72 34 -78 34 -21 0 -9 -31 26 -70 86 -95
222 -175 372 -220 47 -14 72 -26 68 -33 -51 -120 -67 -166 -81 -237 -10 -47
-20 -88 -24 -92 -4 -4 -89 20 -191 53 -332 110 -572 145 -923 136 -241 -6
-366 -27 -618 -103 -14 -4 -17 13 -22 128 -9 206 -50 353 -134 486 -52 83 -65
70 -52 -58 4 -47 8 -127 8 -177 1 -82 -1 -93 -16 -93 -36 0 -130 64 -198 135
-184 189 -282 512 -230 758 29 136 106 232 240 298 180 88 327 77 720 -51 256
-84 363 -111 464 -117 121 -8 121 11 -1 43 -117 31 -191 63 -338 144 -69 38
-133 72 -142 76 -75 27 127 139 332 183 130 28 295 23 433 -13z m-178 -1766
c206 -21 427 -81 580 -157 57 -29 227 -126 244 -140 5 -4 32 -284 29 -294 -2
-4 -75 11 -163 32 -196 49 -489 103 -650 121 -76 8 -253 13 -480 13 -297 0
-379 -3 -469 -18 -60 -9 -110 -16 -111 -15 -2 2 12 48 31 103 42 121 74 249
74 292 0 39 14 48 90 57 30 4 78 11 105 16 64 11 575 4 720 -10z"/>
<path d="M4240 2200 c-133 -45 -259 -80 -358 -99 -84 -17 -192 -42 -240 -57
-185 -56 -204 -80 -173 -221 11 -49 17 -91 13 -95 -4 -4 -45 -12 -92 -19 -63
-10 -240 -12 -680 -11 -795 3 -900 -4 -1475 -103 -345 -60 -584 -113 -675
-151 -110 -47 -136 -149 -63 -247 42 -55 140 -124 197 -138 116 -28 351 21
966 200 317 93 676 180 885 215 349 58 955 35 1030 -40 8 -8 28 -59 45 -113
18 -59 37 -101 46 -105 25 -9 165 -7 272 5 181 20 419 81 627 161 132 51 195
104 215 178 33 123 -41 408 -146 565 -48 71 -72 96 -114 119 -54 29 -72 26
-280 -44z m245 -100 c0 -28 -10 -32 -185 -79 -58 -16 -222 -61 -365 -100 -142
-39 -265 -69 -272 -67 -19 8 -16 44 5 54 9 5 71 24 137 41 66 18 163 45 215
61 52 15 140 40 195 54 55 15 129 35 165 46 84 24 105 22 105 -10z m42 -126
c3 -8 -1 -21 -8 -28 -8 -8 -108 -39 -224 -71 -115 -32 -280 -77 -365 -102
-172 -49 -234 -61 -244 -45 -21 35 23 53 389 152 105 29 235 65 290 80 117 33
153 36 162 14z m33 -129 c28 -34 4 -44 -350 -139 -96 -26 -238 -65 -314 -87
-135 -38 -176 -42 -176 -15 0 24 35 43 120 66 102 27 342 94 535 149 160 45
168 46 185 26z m38 -138 c6 -7 7 -19 3 -26 -8 -12 -145 -55 -336 -105 -49 -13
-173 -47 -274 -75 -201 -56 -219 -59 -228 -35 -13 35 -26 30 672 224 115 32
148 35 163 17z m30 -126 c8 -5 12 -17 10 -27 -3 -19 -48 -34 -368 -122 -80
-22 -214 -59 -298 -82 -140 -39 -155 -41 -169 -27 -13 13 -14 19 -4 31 16 19
41 26 516 156 66 18 156 43 200 56 91 26 95 27 113 15z"/>
</g>
</svg>
